# xmcd
#
# Track frame offsets:
#	150
#	17716
#	33742
#	47716
#	63449
#	79801
#	94330
#	111076
#	128180
#	145995
#	163561
#	179587
#	193561
#	209294
#	225646
#	240175
#	256921
#	274025
#
# Disc length: 3891 seconds
#
# Revision: 1
# Processed by: cddbd v1.5.2PL0 Copyright (c) Steve Scherf et al.
# Submitted via: audiograbber 1.83.01
#
DISCID=fa0f3112
DTITLE=Compilation - PHMC1110
DYEAR=2011
DGENRE=Country
TTITLE0=Blake Shelton - God Gave Me You
TTITLE1=JT Hodges - Hunt You Down
TTITLE2=Katie Armiger - I Do But Do I
TTITLE3=Josh Abbott Band - Oh Tonight
TTITLE4=Amber Hayes - Wait
TTITLE5=Sawyer Brown - Smokin Hot Wife
TTITLE6=Billy Ray Cyrus - Runway Lights
TTITLE7=Terri Clark - Northern Girl
TTITLE8=Lee Brice - Sumter County Friday Night
TTITLE9=Blake Shelton - God Gave Me You
TTITLE10=JT Hodges - Hunt You Down
TTITLE11=Katie Armiger - I Do But Do I
TTITLE12=Josh Abbott Band - Oh Tonight
TTITLE13=Amber Hayes - Wait
TTITLE14=Sawyer Brown - Smokin Hot Wife
TTITLE15=Billy Ray Cyrus - Runway Lights
TTITLE16=Terri Clark - Northern Girl
TTITLE17=Lee Brice - Sumter County Friday Night
EXTD=
EXTT0=
EXTT1=
EXTT2=
EXTT3=
EXTT4=
EXTT5=
EXTT6=
EXTT7=
EXTT8=
EXTT9=
EXTT10=
EXTT11=
EXTT12=
EXTT13=
EXTT14=
EXTT15=
EXTT16=
EXTT17=
PLAYORDER=
